<svg width="96" height="75" viewBox="0 0 96 75" fill="none" xmlns="http://www.w3.org/2000/svg">
<path fill-rule="evenodd" clip-rule="evenodd" d="M95.9948 42.7988C95.53 52.7192 86.6218 60.3619 76.6351 60.6014L75.0922 60.6384C66.3948 60.847 57.9416 63.7083 50.8087 68.7857C43.9219 73.6887 35.0339 75.9731 25.608 74.0854C25.1316 73.9903 24.1826 73.7673 22.9242 73.3616C18.8354 72.1285 14.9737 70.071 11.6116 67.2346C9.74263 65.6923 7.93445 63.8282 6.36299 61.5832C6.3104 61.5107 6.25806 61.438 6.20597 61.365C-2.3628 49.3549 -1.40999 33.4281 7.56192 22.5694L0.584211 14.3038C-0.32893 13.1944 -0.152312 11.5417 0.978882 10.6106L3.02629 8.9254C4.15748 7.99431 5.81329 8.13873 6.72643 9.24812L13.2481 17.1985C13.3775 17.1033 13.5079 17.0088 13.6391 16.9151C14.7986 16.0879 15.9946 15.3494 17.219 14.6983L15.3269 4.57353C15.0717 3.15953 16.0327 1.80344 17.4745 1.54315L20.0841 1.07205C21.5259 0.811766 22.9004 1.74623 23.1557 3.16023L24.6002 11.8873C33.9964 9.60058 44.0544 11.714 51.7509 17.7219C58.8219 21.7418 66.6814 24.1937 74.9137 23.9963L80.9087 8.60424C81.2536 7.68253 82.0668 7.03681 83.0019 6.88667C83.2149 6.85246 83.4349 6.84364 83.6558 6.8645C84.8502 6.9709 85.8037 7.8763 85.9717 9.0602C85.9717 9.0602 85.8414 8.545 86.0874 10.2727L90.8336 1.42048C91.2996 0.553678 92.1924 0.0234695 93.1392 0.000766605C93.3549 -0.00440911 93.5741 0.0165102 93.7901 0.066954C94.9593 0.333391 95.782 1.35906 95.7889 2.55482C95.7889 2.55482 96.0388 41.8521 95.9948 42.7988ZM84.0845 25.0573L90.579 12.9457L90.6725 29.1497C88.8291 27.3321 86.5797 25.9513 84.0845 25.0573ZM78.1898 36.1178L79.1522 39.7096L82.7441 38.7472L83.7065 42.3391L80.1146 43.3015L81.0771 46.8935L77.4852 47.8559L76.5227 44.264L72.9308 45.2264L71.9684 41.6345L75.5603 40.6721L74.5978 37.0802L78.1898 36.1178Z" fill="#023047"/>
</svg>
