<svg width="64" height="64" viewBox="0 0 64 64" fill="none" xmlns="http://www.w3.org/2000/svg">
<path d="M63.9786 27.6638C63.6264 20.9338 57.5864 15.8883 50.8476 15.8883H49.8064C43.9376 15.8883 38.2232 14.0827 33.391 10.7505C28.7254 7.53278 22.7199 6.12612 16.3677 7.56167C14.3666 8.01278 -0.00888473 12.1372 4.12045e-06 28.3327C0.00444854 36.216 4.29776 43.0882 10.6655 46.7782V54.9992C10.6655 55.9814 11.4611 56.777 12.4433 56.777H14.2211C15.2033 56.777 15.9988 55.9814 15.9988 54.9992V48.9704C17.7055 49.4104 19.4877 49.6659 21.3321 49.6659C21.9366 49.6659 22.5188 49.5848 23.1099 49.5348V54.9992C23.1099 55.9814 23.9055 56.777 24.8877 56.777H26.6654C27.6477 56.777 28.4432 55.9814 28.4432 54.9992V48.3959C30.0254 47.8337 31.541 47.1304 32.9254 46.2282C38.0076 42.9159 43.762 40.7771 49.8287 40.7771C52.6598 40.7771 51.6075 40.7426 52.3898 40.6904L60.6575 55.8503C60.9753 56.4314 61.5797 56.777 62.2186 56.777C62.3642 56.777 62.5119 56.7592 62.6575 56.7214C63.4453 56.5214 63.9964 55.8114 63.9964 54.9992C63.9964 54.9992 64.0119 28.306 63.9786 27.6638ZM51.552 30.9993C50.0798 30.9993 48.8853 29.8049 48.8853 28.3327C48.8853 26.8594 50.0798 25.666 51.552 25.666C53.0242 25.666 54.2186 26.8594 54.2186 28.3327C54.2186 29.8049 53.0242 30.9993 51.552 30.9993ZM60.4408 48.027L56.012 39.9071C57.692 39.2593 59.2042 38.2849 60.4408 37.0204V48.027Z" fill="#023047"/>
</svg>
