<svg width="64" height="50" viewBox="0 0 64 50" fill="none" xmlns="http://www.w3.org/2000/svg">
<path d="M63.9786 20.6638C63.6264 13.9338 57.5864 8.8883 50.8476 8.8883H49.8064C43.9376 8.8883 38.2232 7.08275 33.391 3.75054C28.7254 0.53278 22.7199 -0.873881 16.3677 0.561668C14.3666 1.01278 -0.00888473 5.1372 4.12045e-06 21.3327C0.00444854 29.216 4.29776 36.0882 10.6655 39.7782V47.9992C10.6655 48.9814 11.4611 49.777 12.4433 49.777H14.2211C15.2033 49.777 15.9988 48.9814 15.9988 47.9992V41.9704C17.7055 42.4104 19.4877 42.6659 21.3321 42.6659C21.9366 42.6659 22.5188 42.5848 23.1099 42.5348V47.9992C23.1099 48.9814 23.9055 49.777 24.8877 49.777H26.6654C27.6477 49.777 28.4432 48.9814 28.4432 47.9992V41.3959C30.0254 40.8337 31.541 40.1304 32.9254 39.2282C38.0076 35.9159 43.762 33.7771 49.8287 33.7771C52.6598 33.7771 51.6075 33.7426 52.3898 33.6904L60.6575 48.8503C60.9753 49.4314 61.5797 49.777 62.2186 49.777C62.3642 49.777 62.5119 49.7592 62.6575 49.7214C63.4453 49.5214 63.9964 48.8114 63.9964 47.9992C63.9964 47.9992 64.0119 21.306 63.9786 20.6638ZM51.552 23.9993C50.0798 23.9993 48.8853 22.8049 48.8853 21.3327C48.8853 19.8594 50.0798 18.666 51.552 18.666C53.0242 18.666 54.2186 19.8594 54.2186 21.3327C54.2186 22.8049 53.0242 23.9993 51.552 23.9993ZM60.4408 41.027L56.012 32.9071C57.692 32.2593 59.2042 31.2849 60.4408 30.0204V41.027Z" fill="#FFFFFC"/>
</svg>
