<svg width="72" height="56" viewBox="0 0 72 56" fill="none" xmlns="http://www.w3.org/2000/svg">
<path d="M71.9759 23.2471C71.5797 15.6758 64.7847 9.99949 57.2035 9.99949H56.0323C49.4298 9.99949 43.0011 7.96822 37.5648 4.21943C32.3161 0.599387 25.5599 -0.983131 18.4137 0.631887C16.1624 1.13939 -0.00999532 5.77944 4.6355e-06 23.9996C0.00500461 32.8685 4.83498 40.5998 11.9987 44.7511V54C11.9987 55.105 12.8937 56 13.9987 56H15.9987C17.1037 56 17.9987 55.105 17.9987 54V47.2174C19.9187 47.7124 21.9237 47.9999 23.9986 47.9999C24.6786 47.9999 25.3336 47.9087 25.9986 47.8524V54C25.9986 55.105 26.8936 56 27.9986 56H29.9986C31.1036 56 31.9986 55.105 31.9986 54V46.5711C33.7786 45.9386 35.4836 45.1474 37.0411 44.1324C42.7586 40.4061 49.2323 37.9998 56.0572 37.9998C59.2422 37.9998 58.0585 37.961 58.9385 37.9023L68.2397 54.9575C68.5972 55.6112 69.2772 56 69.9959 56C70.1597 56 70.3259 55.98 70.4897 55.9375C71.3759 55.7125 71.9959 54.9137 71.9959 54C71.9959 54 72.0134 23.9696 71.9759 23.2471ZM57.996 26.9997C56.3397 26.9997 54.996 25.6559 54.996 23.9996C54.996 22.3421 56.3397 20.9996 57.996 20.9996C59.6522 20.9996 60.996 22.3421 60.996 23.9996C60.996 25.6559 59.6522 26.9997 57.996 26.9997ZM67.9959 46.1561L63.0135 37.021C64.9035 36.2923 66.6047 35.196 67.9959 33.7735V46.1561Z" fill="#80C8D5"/>
</svg>
