<svg width="64" height="64" viewBox="0 0 64 64" fill="none" xmlns="http://www.w3.org/2000/svg">
<path d="M32.0001 64C36.4151 64 39.9963 60.4187 39.9963 56H24.0038C24.0038 60.4187 27.5851 64 32.0001 64ZM58.9238 45.2863C56.5088 42.6913 51.9901 38.7875 51.9901 26C51.9901 16.2875 45.1801 8.5125 35.9976 6.605V4C35.9976 1.79125 34.2076 0 32.0001 0C29.7926 0 28.0026 1.79125 28.0026 4V6.605C18.8201 8.5125 12.0101 16.2875 12.0101 26C12.0101 38.7875 7.49133 42.6913 5.07634 45.2863C4.32634 46.0925 3.99384 47.0562 4.00009 48C4.01384 50.05 5.62258 52 8.01258 52H55.9875C58.3775 52 59.9875 50.05 60 48C60.0063 47.0562 59.6738 46.0913 58.9238 45.2863V45.2863Z" fill="#023047"/>
</svg>
