<svg width="64" height="56" viewBox="0 0 64 56" fill="none" xmlns="http://www.w3.org/2000/svg">
<path d="M9.55149 42.9393L9.89092 41.5707L8.89524 40.5722C4.84195 36.5075 2.5 31.4445 2.5 26C2.5 13.4783 15.1955 2.5 32 2.5C48.8045 2.5 61.5 13.4783 61.5 26C61.5 38.5217 48.8045 49.5 32 49.5C27.509 49.5 23.2692 48.6697 19.4552 47.2351L18.127 46.7355L17.0171 47.6197C14.5987 49.5466 10.1799 52.412 4.35807 53.2571C4.62824 52.8923 4.91057 52.4985 5.1985 52.0791C6.78398 49.7698 8.66689 46.506 9.55149 42.9393Z" stroke="#023047" stroke-width="5"/>
</svg>
