<svg width="64" height="64" viewBox="0 0 64 64" fill="none" xmlns="http://www.w3.org/2000/svg">
<path d="M44.701 42.3314L48.2566 38.7758C48.8122 38.2202 49.7789 38.6091 49.7789 39.4091V55.565C49.7789 58.5095 47.3899 60.8985 44.4454 60.8985H5.33345C2.38894 60.8985 0 58.5095 0 55.565V16.453C0 13.5085 2.38894 11.1196 5.33345 11.1196H35.723C36.5119 11.1196 36.9119 12.0752 36.3563 12.6419L32.8007 16.1975C32.634 16.3642 32.4118 16.453 32.1674 16.453H5.33345V55.565H44.4454V42.9536C44.4454 42.7203 44.5343 42.4981 44.701 42.3314ZM62.1013 19.9087L32.9229 49.0871L22.8783 50.1982C19.9671 50.5205 17.4893 48.0648 17.8115 45.1314L18.9226 35.0868L48.101 5.90837C50.6455 3.36388 54.7567 3.36388 57.2901 5.90837L62.0902 10.7085C64.6347 13.253 64.6347 17.3753 62.1013 19.9087ZM51.1233 23.3421L44.6676 16.8864L24.0227 37.5424L23.2116 44.7981L30.4673 43.987L51.1233 23.3421ZM58.3235 14.4863L53.5234 9.68623C53.0678 9.23067 52.3234 9.23067 51.8789 9.68623L48.4455 13.1196L54.9012 19.5753L58.3346 16.1419C58.779 15.6753 58.7791 14.9419 58.3235 14.4863Z" fill="#023047"/>
</svg>
