<svg width="64" height="64" viewBox="0 0 64 64" fill="none" xmlns="http://www.w3.org/2000/svg">
<path d="M32.2903 22.7097C37.4258 22.7097 41.5806 26.8645 41.5806 32C41.5806 37.1355 37.4258 41.2903 32.2903 41.2903C27.1548 41.2903 23 37.1355 23 32C23 26.8645 27.1548 22.7097 32.2903 22.7097ZM23 9.29032C23 14.4258 27.1548 18.5806 32.2903 18.5806C37.4258 18.5806 41.5806 14.4258 41.5806 9.29032C41.5806 4.15484 37.4258 0 32.2903 0C27.1548 0 23 4.15484 23 9.29032ZM23 54.7097C23 59.8452 27.1548 64 32.2903 64C37.4258 64 41.5806 59.8452 41.5806 54.7097C41.5806 49.5742 37.4258 45.4194 32.2903 45.4194C27.1548 45.4194 23 49.5742 23 54.7097Z" fill="#023047"/>
</svg>
