<svg width="64" height="64" viewBox="0 0 64 64" fill="none" xmlns="http://www.w3.org/2000/svg">
<path d="M58.3919 5.60556C50.5732 -2.20444 38.1832 -2.49194 26.8569 8.82181C17.0306 18.6368 19.2344 16.4368 16.1381 19.5293C8.58063 27.078 7.33938 38.383 8.18313 45.9255L30.4882 23.6443C31.2707 22.863 32.5382 22.863 33.3194 23.6443C34.1007 24.4255 34.1007 25.6918 33.3194 26.473L0.879376 58.8793C-0.293125 60.0505 -0.293125 61.9505 0.879376 63.1218C2.05188 64.293 3.95438 64.293 5.12688 63.1218L13.3894 54.868C19.9269 56.8318 34.8744 57.1393 44.2432 48.0005H31.9694L50.4157 41.858C56.6644 35.6168 54.9632 37.3355 56.2044 36.0005H43.9819L60.4244 30.5255C66.1044 21.218 64.7132 11.9206 58.3919 5.60556V5.60556Z" fill="#FFFFFC"/>
</svg>
