<svg width="400" height="351" viewBox="0 0 400 351" fill="none" xmlns="http://www.w3.org/2000/svg">
<path d="M41.8906 176.159C3.90273 136.838 6.18952 71.5963 48.5769 35.3689C84.6671 4.57878 139.46 9.44655 173.827 45.0211L173.836 45.03L173.844 45.0389L189.235 60.9176L200.006 72.0303L210.777 60.9176L226.167 45.0389L226.174 45.0319C260.629 9.43662 315.354 4.58347 351.438 35.3721C393.821 71.5989 396.105 136.83 358.052 176.149L358.049 176.152L206.883 332.433C206.882 332.434 206.881 332.435 206.88 332.436C203.01 336.431 196.923 336.431 193.053 332.436C193.052 332.435 193.051 332.434 193.05 332.433L41.8906 176.159Z" stroke="#023047" stroke-width="30"/>
</svg>
