<svg width="64" height="64" viewBox="0 0 64 64" fill="none" xmlns="http://www.w3.org/2000/svg">
<path d="M62.9657 40.3598L52.8971 50.4284C51.9598 51.3656 50.4403 51.3656 49.503 50.4284L39.4343 40.3598C38.497 39.4225 38.497 37.9029 39.4343 36.9657L40.5166 35.8834C41.4728 34.9272 43.0299 34.9494 43.9585 35.9326L48 40.2118V22H29.2451C28.6086 21.9999 27.9981 21.7471 27.548 21.2971L25.948 19.6971C24.4361 18.1851 25.5069 15.6 27.6451 15.6H52C53.3255 15.6 54.4 16.6745 54.4 18V40.2118L58.4416 35.9326C59.3701 34.9495 60.9272 34.9272 61.8835 35.8834L62.9658 36.9657C63.903 37.9029 63.903 39.4226 62.9657 40.3598V40.3598ZM36.4519 41.9029C36.229 41.68 35.9644 41.5032 35.6732 41.3826C35.382 41.262 35.07 41.2 34.7548 41.2H16V22.9881L20.0416 27.2673C20.9702 28.2504 22.5272 28.2727 23.4835 27.3164L24.5657 26.2342C25.503 25.2969 25.503 23.7773 24.5657 22.8401L14.4971 12.7716C13.5598 11.8343 12.0402 11.8343 11.103 12.7716L1.03427 22.8402C0.0969738 23.7775 0.0969738 25.2971 1.03427 26.2343L2.11647 27.3165C3.07267 28.2727 4.62977 28.2505 5.55837 27.2674L9.59997 22.9881V45.2C9.59997 46.5255 10.6745 47.6 12 47.6H36.3549C38.4931 47.6 39.5639 45.0149 38.052 43.5029L36.4519 41.9029V41.9029Z" fill="#023047"/>
</svg>
