<svg width="535" height="513" viewBox="0 0 535 513" fill="none" xmlns="http://www.w3.org/2000/svg">
<path d="M507.6 171.513L361.5 150.213L296.201 17.8127C284.501 -5.78732 250.6 -6.08732 238.8 17.8127L173.5 150.213L27.4005 171.513C1.20048 175.313 -9.29953 207.613 9.70047 226.113L115.4 329.113L90.4005 474.613C85.9005 500.913 113.6 520.613 136.8 508.313L267.5 439.613L398.201 508.313C421.401 520.513 449.1 500.913 444.6 474.613L419.6 329.113L525.3 226.113C544.3 207.613 533.8 175.313 507.6 171.513V171.513ZM368.1 312.313L391.8 450.713L267.5 385.413L143.2 450.713L166.9 312.313L66.3005 214.313L205.3 194.113L267.5 68.1127L329.701 194.113L468.701 214.313L368.1 312.313V312.313Z" fill="#023047"/>
</svg>
