<svg width="65" height="65" viewBox="0 0 65 65" fill="none" xmlns="http://www.w3.org/2000/svg">
<path d="M43.6258 27.9754L42.3354 15.5019H46.7869C48.1849 15.5019 49.3182 14.3687 49.3182 12.9707V7.9082C49.3182 6.51021 48.1849 5.37695 46.7869 5.37695L18.0995 5.37695C16.7015 5.37695 15.5682 6.51021 15.5682 7.9082V12.9707C15.5682 14.3687 16.7015 15.5019 18.0995 15.5019H22.551L21.2606 27.9754C16.1446 30.354 12.1932 34.6193 12.1932 39.9707C12.1932 41.3686 13.3265 42.5019 14.7245 42.5019H29.0682V53.4714C29.0682 53.6024 29.0987 53.7316 29.1573 53.8488L31.6886 58.9112C31.9988 59.5316 32.8871 59.5328 33.1979 58.9112L35.7292 53.8488C35.7878 53.7316 35.8183 53.6024 35.8183 53.4714V42.5019H50.162C51.56 42.5019 52.6933 41.3686 52.6933 39.9707C52.6932 34.5725 48.6873 30.3287 43.6258 27.9754Z" fill="#023047"/>
</svg>
