<svg width="68" height="68" viewBox="0 0 68 68" fill="none" xmlns="http://www.w3.org/2000/svg">
<path d="M42.9209 36.9633L41.8381 38.2774L42.4111 39.8808C44.0173 44.3749 43.6641 48.6086 41.2795 51.2745L31.547 41.406L29.4404 39.27L27.3044 41.3766L19.8567 48.7217L19.0593 48.9814L19.33 48.1877L26.7777 40.8425L28.9137 38.736L26.8072 36.6L17.0747 26.7316C19.7495 24.4059 23.9726 24.0751 28.4828 25.758L30.0782 26.3532L31.4071 25.2887L41.1942 17.4487L43.7904 15.3691L41.4546 13.0008L38.658 10.1651L41.595 7.26856L61.0806 27.0263L58.1436 29.9229L55.347 27.0872L53.0113 24.7188L50.8959 27.2858L42.9209 36.9633Z" stroke="#023047" stroke-width="6"/>
</svg>
