<svg width="64" height="64" viewBox="0 0 64 64" fill="none" xmlns="http://www.w3.org/2000/svg">
<path d="M58 4.00002H43L41.825 1.66252C41.5761 1.16279 41.1927 0.742425 40.7179 0.44872C40.2431 0.155015 39.6958 -0.000378496 39.1375 2.19159e-05H24.85C24.293 -0.0021194 23.7466 0.152694 23.2735 0.446726C22.8004 0.740758 22.4197 1.16212 22.175 1.66252L21 4.00002H6C5.46957 4.00002 4.96086 4.21074 4.58579 4.58581C4.21071 4.96088 4 5.46959 4 6.00002V10C4 10.5305 4.21071 11.0392 4.58579 11.4142C4.96086 11.7893 5.46957 12 6 12H58C58.5304 12 59.0391 11.7893 59.4142 11.4142C59.7893 11.0392 60 10.5305 60 10V6.00002C60 5.46959 59.7893 4.96088 59.4142 4.58581C59.0391 4.21074 58.5304 4.00002 58 4.00002V4.00002ZM10.65 58.375C10.7454 59.8983 11.4177 61.328 12.5301 62.373C13.6424 63.418 15.1112 63.9998 16.6375 64H47.3625C48.8887 63.9998 50.3576 63.418 51.4699 62.373C52.5823 61.328 53.2546 59.8983 53.35 58.375L56 16H8L10.65 58.375Z" fill="#023047"/>
</svg>
