<svg width="64" height="64" viewBox="0 0 64 64" fill="none" xmlns="http://www.w3.org/2000/svg">
<path d="M37.3774 50.125H40.0977C40.4585 50.125 40.8044 49.9818 41.0595 49.7268C41.3146 49.4719 41.4579 49.1262 41.4579 48.7656V24.2969C41.4579 23.9363 41.3146 23.5906 41.0595 23.3357C40.8044 23.0807 40.4585 22.9375 40.0977 22.9375H37.3774C37.0166 22.9375 36.6707 23.0807 36.4156 23.3357C36.1605 23.5906 36.0172 23.9363 36.0172 24.2969V48.7656C36.0172 49.1262 36.1605 49.4719 36.4156 49.7268C36.6707 49.9818 37.0166 50.125 37.3774 50.125ZM55.9665 12.0625H46.6255L42.7716 5.63945C42.288 4.83404 41.6038 4.16758 40.7858 3.70501C39.9678 3.24245 39.0438 2.99955 38.1039 3H26.6761C25.7367 2.99994 24.8132 3.24302 23.9956 3.70557C23.178 4.16812 22.4942 4.83437 22.0107 5.63945L18.1546 12.0625H8.81357C8.33258 12.0625 7.87129 12.2535 7.53118 12.5934C7.19107 12.9333 7 13.3943 7 13.875V15.6875C7 16.1682 7.19107 16.6292 7.53118 16.9691C7.87129 17.309 8.33258 17.5 8.81357 17.5H10.6271V55.5625C10.6271 57.0046 11.2004 58.3877 12.2207 59.4074C13.241 60.4271 14.6249 61 16.0679 61H48.7122C50.1552 61 51.5391 60.4271 52.5594 59.4074C53.5797 58.3877 54.1529 57.0046 54.1529 55.5625V17.5H55.9665C56.4475 17.5 56.9088 17.309 57.2489 16.9691C57.589 16.6292 57.7801 16.1682 57.7801 15.6875V13.875C57.7801 13.3943 57.589 12.9333 57.2489 12.5934C56.9088 12.2535 56.4475 12.0625 55.9665 12.0625ZM26.4778 8.76715C26.5384 8.66632 26.6242 8.58294 26.7267 8.52515C26.8292 8.46737 26.945 8.43717 27.0627 8.4375H37.7174C37.8349 8.43737 37.9505 8.46766 38.0528 8.52543C38.1551 8.58321 38.2406 8.66648 38.3012 8.76715L40.2802 12.0625H24.4999L26.4778 8.76715ZM48.7122 55.5625H16.0679V17.5H48.7122V55.5625ZM24.6824 50.125H27.4027C27.7635 50.125 28.1094 49.9818 28.3645 49.7268C28.6196 49.4719 28.7629 49.1262 28.7629 48.7656V24.2969C28.7629 23.9363 28.6196 23.5906 28.3645 23.3357C28.1094 23.0807 27.7635 22.9375 27.4027 22.9375H24.6824C24.3216 22.9375 23.9756 23.0807 23.7206 23.3357C23.4655 23.5906 23.3222 23.9363 23.3222 24.2969V48.7656C23.3222 49.1262 23.4655 49.4719 23.7206 49.7268C23.9756 49.9818 24.3216 50.125 24.6824 50.125Z" fill="#023047"/>
</svg>
