<svg width="64" height="64" viewBox="0 0 64 64" fill="none" xmlns="http://www.w3.org/2000/svg">
<g clip-path="url(#clip0)">
<path d="M61.05 43.33C61.31 41.92 61.31 40.48 61.05 39.07L63.63 37.58C63.93 37.41 64.06 37.06 63.96 36.73C63.29 34.57 62.14 32.61 60.64 30.99C60.41 30.74 60.04 30.68 59.74 30.85L57.16 32.34C56.07 31.41 54.82 30.69 53.47 30.21V27.23C53.47 26.89 53.23 26.59 52.9 26.52C50.67 26.02 48.4 26.04 46.28 26.52C45.95 26.59 45.71 26.89 45.71 27.23V30.21C44.36 30.69 43.11 31.41 42.02 32.34L39.44 30.85C39.15 30.68 38.77 30.74 38.54 30.99C37.04 32.61 35.89 34.57 35.22 36.73C35.12 37.06 35.26 37.41 35.55 37.58L38.13 39.07C37.87 40.48 37.87 41.92 38.13 43.33L35.55 44.82C35.25 44.99 35.12 45.34 35.22 45.67C35.89 47.83 37.04 49.78 38.54 51.41C38.77 51.66 39.14 51.72 39.44 51.55L42.02 50.06C43.11 50.99 44.36 51.71 45.71 52.19V55.17C45.71 55.51 45.95 55.81 46.28 55.88C48.51 56.38 50.78 56.36 52.9 55.88C53.23 55.81 53.47 55.51 53.47 55.17V52.19C54.82 51.71 56.07 50.99 57.16 50.06L59.74 51.55C60.03 51.72 60.41 51.66 60.64 51.41C62.14 49.79 63.29 47.83 63.96 45.67C64.06 45.34 63.92 44.99 63.63 44.82L61.05 43.33V43.33ZM49.6 46.05C46.92 46.05 44.75 43.87 44.75 41.2C44.75 38.53 46.93 36.35 49.6 36.35C52.27 36.35 54.45 38.53 54.45 41.2C54.45 43.87 52.28 46.05 49.6 46.05ZM22.4 31.6C29.47 31.6 35.2 25.87 35.2 18.8C35.2 11.73 29.47 6 22.4 6C15.33 6 9.6 11.73 9.6 18.8C9.6 25.87 15.33 31.6 22.4 31.6ZM42.52 54.25C42.29 54.13 42.06 53.99 41.84 53.86L41.05 54.32C40.45 54.66 39.77 54.85 39.09 54.85C38 54.85 36.95 54.39 36.2 53.59C34.37 51.61 32.97 49.2 32.18 46.63C31.63 44.86 32.37 42.99 33.97 42.06L34.76 41.6C34.75 41.34 34.75 41.08 34.76 40.82L33.97 40.36C32.37 39.44 31.63 37.56 32.18 35.79C32.27 35.5 32.4 35.21 32.5 34.92C32.12 34.89 31.75 34.8 31.36 34.8H29.69C27.47 35.82 25 36.4 22.4 36.4C19.8 36.4 17.34 35.82 15.11 34.8H13.44C6.02 34.8 0 40.82 0 48.24V52.4C0 55.05 2.15 57.2 4.8 57.2H40C41.01 57.2 41.95 56.88 42.72 56.35C42.6 55.97 42.52 55.58 42.52 55.17V54.25Z" fill="#023047"/>
</g>
<defs>
<clipPath id="clip0">
<rect width="64" height="51.2" fill="white" transform="translate(0 6)"/>
</clipPath>
</defs>
</svg>
